<?xml version="1.0" encoding="UTF-8" standalone="no"?>
<svg
   xmlns:dc="http://purl.org/dc/elements/1.1/"
   xmlns:cc="http://creativecommons.org/ns#"
   xmlns:rdf="http://www.w3.org/1999/02/22-rdf-syntax-ns#"
   xmlns:svg="http://www.w3.org/2000/svg"
   xmlns="http://www.w3.org/2000/svg"
   viewBox="0 0 377.34668 377.34668"
   height="377.34668"
   width="377.34668"
   xml:space="preserve"
   id="svg2"
   version="1.1"><metadata
     id="metadata8"><rdf:RDF><cc:Work
         rdf:about=""><dc:format>image/svg+xml</dc:format><dc:type
           rdf:resource="http://purl.org/dc/dcmitype/StillImage" /></cc:Work></rdf:RDF></metadata><defs
     id="defs6" /><g
     transform="matrix(1.3333333,0,0,-1.3333333,0,377.34667)"
     id="g10"><g
       transform="scale(0.1)"
       id="g12"><path
         id="path14"
         style="fill:#868685;fill-opacity:1;fill-rule:nonzero;stroke:none"
         d="M 2830.13,1415.07 C 2830.13,633.539 2196.58,0 1415.07,0 633.547,0 0.00390625,633.539 0.00390625,1415.07 0.00390625,2196.59 633.547,2830.13 1415.07,2830.13 c 781.51,0 1415.06,-633.54 1415.06,-1415.06" /><g
         transform="scale(10)"
         id="g16"><g
           id="text22"
           style="font-variant:normal;font-weight:bold;font-size:30px;font-family:Montserrat;-inkscape-font-specification:Montserrat-Bold;writing-mode:lr-tb;fill:#ffffff;fill-opacity:1;fill-rule:nonzero;stroke:none"
           transform="matrix(1,0,0,-1,63.5332,205.946)"
           aria-label="WIR SIND 
UMGEZOGEN!"><path
             id="path30"
             style=""
             d="m 27.81,-21.03 h 5.64 L 26.34,0 H 20.7 L 16.71,-14.31 12.66,0 H 7.02 l -7.08,-21.03 h 5.91 l 4.14,15.36 4.14,-15.36 h 5.37 l 4.2,15.36 z" /><path
             id="path32"
             style=""
             d="m 36.479499,-21.03 h 5.49 V 0 h -5.49 z" /><path
             id="path34"
             style=""
             d="m 58.949499,0 -3.06,-5.82 h -0.12 -3.96 V 0 h -5.49 v -21.03 h 9.45 q 4.17,0 6.45,1.95 2.31,1.92 2.31,5.43 0,2.37 -0.96,4.11 -0.96,1.71 -2.79,2.67 l 4.38,6.87 z m -7.14,-10.2 h 3.99 q 1.68,0 2.58,-0.84 0.93,-0.84 0.93,-2.43 0,-1.53 -0.93,-2.34 -0.9,-0.84 -2.58,-0.84 h -3.99 z" /><path
             id="path36"
             style=""
             d="m 91.349496,-14.7 q -1.68,-0.99 -3.6,-1.62 -1.89,-0.63 -3.18,-0.63 -1.02,0 -1.62,0.39 -0.57,0.36 -0.57,1.08 0,0.69 0.51,1.17 0.51,0.45 1.26,0.75 0.75,0.27 2.22,0.72 2.19,0.63 3.6,1.26 1.44,0.63 2.46,1.95 1.02,1.29 1.02,3.39 0,2.1 -1.11,3.6 -1.11,1.47 -3.06,2.22 -1.92,0.75 -4.29,0.75 -2.61,0 -5.22,-0.9 -2.58,-0.93 -4.47,-2.52 l 2.13,-4.29 q 1.59,1.41 3.75,2.31 2.19,0.9 3.87,0.9 1.23,0 1.92,-0.45 0.72,-0.45 0.72,-1.32 0,-0.72 -0.54,-1.2 -0.51,-0.48 -1.32,-0.75 -0.78,-0.3 -2.22,-0.69 -2.16,-0.6 -3.57,-1.2 -1.41,-0.63 -2.43,-1.86 -0.99,-1.26 -0.99,-3.33 0,-1.95 1.02,-3.42 1.05,-1.47 2.94,-2.25 1.92,-0.81 4.44,-0.81 2.28,0 4.5,0.66 2.22,0.63 3.9,1.71 z" /><path
             id="path38"
             style=""
             d="M 95.998702,-21.03 H 101.4887 V 0 h -5.489998 z" /><path
             id="path40"
             style=""
             d="m 120.20871,-21.03 h 5.1 V 0 h -4.8 l -9.54,-12.57 V 0 h -5.13 v -21.03 h 4.83 l 9.57,12.66 z" /><path
             id="path42"
             style=""
             d="m 139.13871,-21.03 q 3.3,0 5.82,1.32 2.55,1.32 3.96,3.72 1.41,2.37 1.41,5.46 0,3.09 -1.44,5.49 -1.41,2.4 -4.02,3.72 -2.58,1.32 -5.94,1.32 h -8.85 v -21.03 z m 0.15,16.59 q 1.59,0 2.82,-0.75 1.23,-0.75 1.92,-2.13 0.69,-1.38 0.69,-3.15 0,-1.8 -0.75,-3.18 -0.72,-1.38 -2.01,-2.13 -1.29,-0.78 -2.94,-0.78 h -3.45 v 12.12 z" /><path
             id="path44"
             style=""
             d="m -24.900301,27.33 q 0,1.98 1.17,3.18 1.17,1.2 2.97,1.2 1.77,0 2.85,-1.17 1.11,-1.2 1.11,-3.21 V 14.97 h 5.49 v 12.36 q 0,2.73 -1.17,4.8 -1.14,2.04 -3.3,3.15 -2.13,1.11 -5.01,1.11 -2.88,0 -5.07,-1.11 -2.16,-1.11 -3.36,-3.15 -1.17,-2.07 -1.17,-4.8 V 14.97 h 5.49 z" /><path
             id="path46"
             style=""
             d="m -6.3902998,14.97 h 5.97000004 L 5.6697002,27.27 11.7297,14.97 h 5.97 V 36 h -4.86 L 12.8097,22.68 7.4397002,33.9 h -3.54 l -5.4,-11.22 V 36 h -4.89 z" /><path
             id="path48"
             style=""
             d="m 36.1797,25.26 h 4.74 v 8.37 q -1.68,1.23 -4.14,2.01 -2.43,0.75 -4.62,0.75 -3.18,0 -5.76,-1.41 -2.55,-1.44 -4.02,-3.93 -1.47,-2.49 -1.47,-5.58 0,-3.06 1.5,-5.52 1.53,-2.49 4.17,-3.9 2.67,-1.41 5.94,-1.41 2.34,0 4.68,0.87 2.34,0.84 3.96,2.28 l -3.12,3.84 q -1.14,-1.08 -2.64,-1.71 -1.47,-0.63 -2.91,-0.63 -1.68,0 -3.03,0.81 -1.35,0.81 -2.13,2.22 -0.78,1.41 -0.78,3.15 0,1.77 0.78,3.21 0.78,1.41 2.16,2.22 1.38,0.81 3.06,0.81 1.59,0 3.63,-1.02 z" /><path
             id="path50"
             style=""
             d="m 45.389701,14.97 h 16.59 v 4.38 h -11.1 v 3.93 h 10.02 v 4.35 l -10.02,0.03 v 3.96 h 11.4 V 36 h -16.89 z" /><path
             id="path52"
             style=""
             d="m 64.679698,14.97 h 18.06 v 3.6 l -11.1,13.02 h 11.28 V 36 h -18.63 v -3.57 l 11.1,-13.05 h -10.71 z" /><path
             id="path54"
             style=""
             d="m 95.458834,14.64 q 3.21,0 5.789996,1.41 2.61,1.41 4.08,3.87 1.5,2.46 1.5,5.52 0,3.09 -1.5,5.58 -1.47,2.49 -4.08,3.93 -2.579996,1.44 -5.789996,1.44 -3.21,0 -5.82,-1.41 -2.58,-1.44 -4.08,-3.93 -1.47,-2.52 -1.47,-5.61 0,-3.06 1.47,-5.52 1.5,-2.46 4.08,-3.87 2.61,-1.41 5.82,-1.41 z m 0.06,4.65 q -1.56,0 -2.91,0.81 -1.32,0.81 -2.1,2.25 -0.78,1.41 -0.78,3.12 0,1.74 0.78,3.18 0.81,1.41 2.13,2.25 1.32,0.81 2.88,0.81 1.56,0 2.85,-0.81 1.32,-0.84 2.069996,-2.25 0.75,-1.44 0.75,-3.18 0,-1.71 -0.75,-3.12 -0.749996,-1.44 -2.069996,-2.25 -1.29,-0.81 -2.85,-0.81 z" /><path
             id="path56"
             style=""
             d="m 124.67814,25.26 h 4.74 v 8.37 q -1.68,1.23 -4.14,2.01 -2.43,0.75 -4.62,0.75 -3.18,0 -5.76,-1.41 -2.55,-1.44 -4.02,-3.93 -1.47,-2.49 -1.47,-5.58 0,-3.06 1.5,-5.52 1.53,-2.49 4.17,-3.9 2.67,-1.41 5.94,-1.41 2.34,0 4.68,0.87 2.34,0.84 3.96,2.28 l -3.12,3.84 q -1.14,-1.08 -2.64,-1.71 -1.47,-0.63 -2.91,-0.63 -1.68,0 -3.03,0.81 -1.35,0.81 -2.13,2.22 -0.78,1.41 -0.78,3.15 0,1.77 0.78,3.21 0.78,1.41 2.16,2.22 1.38,0.81 3.06,0.81 1.59,0 3.63,-1.02 z" /><path
             id="path58"
             style=""
             d="m 133.88814,14.97 h 16.59 v 4.38 h -11.1 v 3.93 h 10.02 v 4.35 l -10.02,0.03 v 3.96 h 11.4 V 36 h -16.89 z" /><path
             id="path60"
             style=""
             d="m 168.38813,14.97 h 5.1 V 36 h -4.8 l -9.54,-12.57 V 36 h -5.13 V 14.97 h 4.83 l 9.57,12.66 z" /><path
             id="path62"
             style=""
             d="m 177.74814,15.09 h 5.07 v 5.37 l -0.93,8.25 h -3.21 l -0.93,-8.25 z m 2.43,15.96 q 1.14,0 1.86,0.72 0.72,0.72 0.72,1.86 0,1.14 -0.72,1.89 -0.72,0.72 -1.86,0.72 -1.11,0 -1.83,-0.72 -0.72,-0.75 -0.72,-1.89 0,-1.14 0.69,-1.86 0.72,-0.72 1.86,-0.72 z" /></g><g
           id="text28"
           style="font-variant:normal;font-weight:300;font-size:30px;font-family:Montserrat;-inkscape-font-specification:Montserrat-Light;writing-mode:lr-tb;fill:#ffffff;fill-opacity:1;fill-rule:nonzero;stroke:none"
           transform="matrix(1,0,0,-1,25.79337,133.946)"
           aria-label="Mittelweg 16–17
20148 Hamburg"><path
             id="path65"
             style=""
             d="M 3.18,-21 H 6.09 L 14.1,-5.7 22.02,-21 h 2.94 V 0 H 22.71 L 22.68,-17.49 14.76,-2.22 H 13.38 L 5.4,-17.49 V 0 H 3.18 Z" /><path
             id="path67"
             style=""
             d="m 31.53,-15.78 h 2.31 V 0 h -2.31 z m 1.14,-6.15 q 0.66,0 1.08,0.48 0.45,0.45 0.45,1.14 0,0.69 -0.45,1.14 -0.42,0.45 -1.08,0.45 -0.66,0 -1.11,-0.45 -0.42,-0.45 -0.42,-1.14 0,-0.69 0.42,-1.14 0.45,-0.48 1.11,-0.48 z" /><path
             id="path69"
             style=""
             d="m 47.519998,-1.08 q -1.77,1.17 -3.63,1.17 -1.8,0 -2.88,-1.11 -1.08,-1.14 -1.08,-3.36 v -9.09 h -2.28 v -1.83 h 2.28 v -4.14 h 2.31 v 4.14 h 5.01 v 1.83 h -5.01 v 8.7 q 0,1.41 0.51,2.07 0.54,0.63 1.59,0.63 1.23,-0.06 2.52,-0.81 z" /><path
             id="path71"
             style=""
             d="m 59.039297,-1.08 q -1.77,1.17 -3.63,1.17 -1.8,0 -2.88,-1.11 -1.08,-1.14 -1.08,-3.36 v -9.09 h -2.28 v -1.83 h 2.28 v -4.14 h 2.31 v 4.14 h 5.01 v 1.83 h -5.01 v 8.7 q 0,1.41 0.51,2.07 0.54,0.63 1.59,0.63 1.23,-0.06 2.52,-0.81 z" /><path
             id="path73"
             style=""
             d="m 68.489395,-15.87 q 3.75,0 5.64,2.4 1.92,2.37 1.74,6.45 h -12.9 q 0.3,2.34 1.86,3.75 1.56,1.41 3.87,1.41 1.44,0 2.7,-0.51 1.26,-0.54 2.19,-1.5 l 1.29,1.35 q -1.14,1.26 -2.79,1.95 -1.62,0.66 -3.57,0.66 -2.31,0 -4.11,-0.99 -1.77,-1.02 -2.76,-2.82 -0.99,-1.83 -0.99,-4.17 0,-2.31 0.99,-4.11 0.99,-1.83 2.76,-2.85 1.8,-1.02 4.08,-1.02 z m 5.28,6.99 q -0.12,-2.31 -1.56,-3.66 -1.41,-1.38 -3.72,-1.38 -2.28,0 -3.78,1.38 -1.5,1.35 -1.74,3.66 z" /><path
             id="path75"
             style=""
             d="m 80.309395,-22.26 h 2.34 V 0 h -2.34 z" /><path
             id="path77"
             style=""
             d="m 85.259397,-15.78 h 2.46 l 4.68,13.41 4.59,-13.41 h 2.46 l 4.650003,13.41 4.62,-13.41 h 2.43 L 105.2994,0 h -2.43 l -4.650003,-12.93 -4.62,12.93 h -2.43 z" /><path
             id="path79"
             style=""
             d="m 119.6396,-15.87 q 3.75,0 5.64,2.4 1.92,2.37 1.74,6.45 h -12.9 q 0.3,2.34 1.86,3.75 1.56,1.41 3.87,1.41 1.44,0 2.7,-0.51 1.26,-0.54 2.19,-1.5 l 1.29,1.35 q -1.14,1.26 -2.79,1.95 -1.62,0.66 -3.57,0.66 -2.31,0 -4.11,-0.99 -1.77,-1.02 -2.76,-2.82 -0.99,-1.83 -0.99,-4.17 0,-2.31 0.99,-4.11 0.99,-1.83 2.76,-2.85 1.8,-1.02 4.08,-1.02 z m 5.28,6.99 q -0.12,-2.31 -1.56,-3.66 -1.41,-1.38 -3.72,-1.38 -2.28,0 -3.78,1.38 -1.5,1.35 -1.74,3.66 z" /><path
             id="path81"
             style=""
             d="m 145.07959,-15.78 v 14.13 q 0,2.28 -0.99,3.99 -0.99,1.71 -2.79,2.61 -1.8,0.93 -4.17,0.93 -3.45,0 -6.48,-2.31 l 1.08,-1.71 q 1.2,1.02 2.49,1.5 1.29,0.51 2.82,0.51 2.61,0 4.14,-1.47 1.56,-1.47 1.56,-3.99 v -2.4 q -0.84,1.59 -2.34,2.46 -1.5,0.84 -3.48,0.84 -2.1,0 -3.75,-0.96 -1.62,-0.99 -2.55,-2.7 -0.9,-1.74 -0.9,-3.96 0,-2.22 0.9,-3.93 0.93,-1.71 2.55,-2.67 1.65,-0.96 3.78,-0.96 1.98,0 3.45,0.87 1.47,0.84 2.34,2.43 v -3.21 z m -7.74,13.17 q 1.56,0 2.79,-0.72 1.23,-0.72 1.92,-2.01 0.69,-1.29 0.69,-2.91 0,-1.62 -0.69,-2.91 -0.69,-1.29 -1.92,-2.01 -1.23,-0.75 -2.79,-0.75 -1.56,0 -2.79,0.72 -1.23,0.72 -1.95,2.04 -0.69,1.29 -0.69,2.91 0,1.62 0.69,2.91 0.72,1.29 1.95,2.01 1.23,0.72 2.79,0.72 z" /><path
             id="path83"
             style=""
             d="m 156.89961,-21 h 7.35 V 0 h -2.4 v -18.78 h -4.95 z" /><path
             id="path85"
             style=""
             d="m 182.9696,-17.76 q -1.02,-0.6 -2.34,-0.93 -1.32,-0.36 -2.55,-0.36 -3.18,0 -4.86,2.25 -1.68,2.22 -1.68,6.15 0,0.78 0.03,1.17 0.69,-1.89 2.34,-2.91 1.65,-1.05 4.02,-1.05 3.12,0 4.92,1.8 1.83,1.77 1.83,4.83 0,2.13 -0.9,3.69 -0.87,1.56 -2.49,2.4 -1.62,0.84 -3.78,0.84 -3.9,0 -6.12,-2.64 -2.19,-2.67 -2.19,-7.5 0,-3.33 1.05,-5.82 1.08,-2.52 3.06,-3.9 1.98,-1.38 4.62,-1.38 1.44,0 3.06,0.42 1.62,0.39 2.94,1.08 z m -5.46,6.3 q -1.65,0 -2.88,0.66 -1.2,0.66 -1.86,1.77 -0.66,1.08 -0.63,2.37 -0.03,1.08 0.54,2.16 0.57,1.08 1.74,1.8 1.2,0.69 2.91,0.69 2.28,0 3.69,-1.29 1.41,-1.32 1.41,-3.54 0,-2.13 -1.35,-3.36 -1.32,-1.26 -3.57,-1.26 z" /><path
             id="path87"
             style=""
             d="m 185.2796,-9.93 h 12.09 v 1.71 h -12.09 z" /><path
             id="path89"
             style=""
             d="m 200.5496,-21 h 7.35 V 0 h -2.4 v -18.78 h -4.95 z" /><path
             id="path91"
             style=""
             d="m 211.7096,-21 h 15.51 v 1.95 L 217.8296,0 h -2.55 l 9.27,-18.78 h -10.65 l -0.03,3.09 h -2.16 z" /><path
             id="path93"
             style=""
             d="M 10.48523,33.78 V 36 H -4.5447701 l 0.03,-1.95 8.22,-8.52 q 1.38,-1.41 2.19,-2.79 0.81,-1.38 0.81,-2.4 0,-1.53 -1.17,-2.4 -1.17,-0.9 -3.24,-0.9 -1.50000001,0 -3.09000001,0.69 -1.58999999,0.69 -2.87999999,1.89 l -1.05,-1.83 q 1.59,-1.38 3.48,-2.13 1.91999999,-0.78 3.81,-0.78 3.03,0 4.83,1.41 1.8,1.38 1.8,3.72 0,1.44 -1.02,3.21 -1.02,1.74 -2.85,3.63 l -6.72,6.93 z" /><path
             id="path95"
             style=""
             d="m 21.794731,14.88 q 4.17,0 6.42,2.76 2.25,2.76 2.25,7.86 0,5.1 -2.25,7.86 -2.25,2.76 -6.42,2.76 -4.17,0 -6.45,-2.76 -2.25,-2.76 -2.25,-7.86 0,-5.1 2.25,-7.86 2.28,-2.76 6.45,-2.76 z m 0,1.98 q -3.09,0 -4.68,2.16 -1.56,2.16 -1.56,6.48 0,4.29 1.56,6.48 1.59,2.19 4.68,2.19 3.06,0 4.62,-2.19 1.59,-2.19 1.59,-6.48 0,-4.29 -1.59,-6.45 -1.56,-2.19 -4.62,-2.19 z" /><path
             id="path97"
             style=""
             d="m 31.064731,15 h 7.35 v 21 h -2.4 V 17.22 h -4.95 z" /><path
             id="path99"
             style=""
             d="m 58.274731,28.23 v 2.22 h -3.3 V 36 h -2.25 v -5.55 h -10.53 V 28.5 l 7.89,-13.5 h 2.37 l -7.65,13.23 h 7.92 v -5.64 h 2.25 v 5.64 z" /><path
             id="path101"
             style=""
             d="m 70.874634,14.88 q 3.12,0 4.92,1.41 1.8,1.41 1.8,3.87 0,1.62 -0.9,2.79 -0.87,1.17 -2.49,1.8 2.07,0.63 3.24,2.04 1.17,1.38 1.17,3.33 0,2.79 -2.07,4.41 -2.07,1.59 -5.67,1.59 -3.57,0 -5.67,-1.59 -2.07,-1.59 -2.07,-4.35 0,-1.98 1.17,-3.39 1.2,-1.41 3.33,-2.04 -1.68,-0.63 -2.61,-1.83 -0.9,-1.2 -0.9,-2.82 0,-2.43 1.8,-3.81 1.83,-1.41 4.95,-1.41 z m 0,1.83 q -2.19,0 -3.45,0.96 -1.23,0.96 -1.23,2.64 0,1.71 1.23,2.67 1.26,0.96 3.45,0.96 2.19,0 3.42,-0.96 1.23,-0.96 1.23,-2.67 0,-1.68 -1.23,-2.64 -1.23,-0.96 -3.42,-0.96 z m -0.03,9.15 q -2.55,0 -4.02,1.08 -1.44,1.08 -1.44,2.97 0,2.01 1.44,3.15 1.47,1.11 4.05,1.11 2.58,0 4.02,-1.11 1.47,-1.11 1.47,-3.12 0,-1.89 -1.47,-2.97 -1.47,-1.11 -4.05,-1.11 z" /><path
             id="path103"
             style=""
             d="m 91.153633,15 h 2.4 v 9.51 H 106.21363 V 15 h 2.4 v 21 h -2.4 V 26.7 H 93.553633 V 36 h -2.4 z" /><path
             id="path105"
             style=""
             d="m 125.05363,36 v -2.46 q -1.89,2.55 -5.79,2.55 -1.59,0 -2.82,-0.63 -1.23,-0.63 -1.89,-1.71 -0.66,-1.08 -0.66,-2.43 0,-2.07 1.56,-3.27 1.56,-1.23 4.35,-1.26 h 5.19 V 25.8 q 0,-1.77 -1.08,-2.73 -1.08,-0.99 -3.15,-0.99 -2.43,0 -5.01,1.83 l -0.99,-1.65 q 1.68,-1.11 3.09,-1.62 1.44,-0.51 3.36,-0.51 2.91,0 4.47,1.44 1.59,1.44 1.62,3.99 l 0.03,10.44 z m -5.34,-1.86 q 2.01,0 3.42,-0.93 1.44,-0.96 1.89,-2.64 v -1.92 h -4.92 q -4.02,0 -4.02,2.58 0,1.32 0.99,2.13 0.99,0.78 2.64,0.78 z" /><path
             id="path107"
             style=""
             d="m 152.98364,20.13 q 2.76,0 4.32,1.65 1.56,1.62 1.56,4.5 V 36 h -2.34 v -9.12 q 0,-2.13 -1.17,-3.33 -1.17,-1.2 -3.21,-1.2 -2.43,0.06 -3.81,1.68 -1.35,1.59 -1.35,4.2 V 36 h -2.37 v -9.12 q 0,-2.13 -1.17,-3.33 -1.14,-1.2 -3.21,-1.2 -2.4,0.06 -3.81,1.68 -1.38,1.62 -1.38,4.2 V 36 h -2.31 V 20.22 h 2.31 v 3.57 q 0.78,-1.8 2.31,-2.7 1.53,-0.93 3.72,-0.96 2.22,0 3.69,1.08 1.47,1.08 1.98,3.03 0.72,-2.04 2.31,-3.06 1.62,-1.02 3.93,-1.05 z" /><path
             id="path109"
             style=""
             d="m 173.23363,20.13 q 2.22,0 3.93,1.02 1.74,1.02 2.7,2.85 0.96,1.8 0.96,4.14 0,2.31 -0.96,4.14 -0.93,1.8 -2.64,2.82 -1.71,0.99 -3.93,0.99 -2.1,0 -3.69,-0.9 -1.56,-0.93 -2.46,-2.58 V 36 h -2.34 V 13.74 h 2.34 v 9.87 q 0.9,-1.65 2.46,-2.55 1.59,-0.93 3.63,-0.93 z m -0.42,13.89 q 1.62,0 2.91,-0.75 1.29,-0.78 2.01,-2.13 0.72,-1.35 0.72,-3.06 0,-1.68 -0.72,-3.03 -0.72,-1.38 -2.01,-2.13 -1.29,-0.78 -2.91,-0.78 -1.65,0 -2.94,0.78 -1.29,0.75 -2.01,2.1 -0.72,1.35 -0.72,3.06 0,1.71 0.72,3.06 0.72,1.35 2.01,2.13 1.29,0.75 2.94,0.75 z" /><path
             id="path111"
             style=""
             d="M 198.61363,20.22 V 36 h -2.34 v -3.57 q -1.53,3.6 -6,3.66 -2.76,0 -4.35,-1.65 -1.56,-1.65 -1.56,-4.5 v -9.72 h 2.34 v 9.12 q 0,2.1 1.17,3.3 1.17,1.2 3.21,1.2 2.43,-0.03 3.81,-1.65 1.38,-1.62 1.38,-4.23 v -7.74 z" /><path
             id="path113"
             style=""
             d="m 207.31296,23.73 q 0.78,-1.74 2.22,-2.64 1.44,-0.93 3.45,-0.96 v 2.28 q -2.46,-0.03 -3.96,1.38 -1.5,1.38 -1.71,3.81 V 36 h -2.34 V 20.22 h 2.34 z" /><path
             id="path115"
             style=""
             d="m 230.14335,20.22 v 14.13 q 0,2.28 -0.99,3.99 -0.99,1.71 -2.79,2.61 -1.8,0.93 -4.17,0.93 -3.45,0 -6.48,-2.31 l 1.08,-1.71 q 1.2,1.02 2.49,1.5 1.29,0.51 2.82,0.51 2.61,0 4.14,-1.47 1.56,-1.47 1.56,-3.99 v -2.4 q -0.84,1.59 -2.34,2.46 -1.5,0.84 -3.48,0.84 -2.1,0 -3.75,-0.96 -1.62,-0.99 -2.55,-2.7 -0.9,-1.74 -0.9,-3.96 0,-2.22 0.9,-3.93 0.93,-1.71 2.55,-2.67 1.65,-0.96 3.78,-0.96 1.98,0 3.45,0.87 1.47,0.84 2.34,2.43 v -3.21 z m -7.74,13.17 q 1.56,0 2.79,-0.72 1.23,-0.72 1.92,-2.01 0.69,-1.29 0.69,-2.91 0,-1.62 -0.69,-2.91 -0.69,-1.29 -1.92,-2.01 -1.23,-0.75 -2.79,-0.75 -1.56,0 -2.79,0.72 -1.23,0.72 -1.95,2.04 -0.69,1.29 -0.69,2.91 0,1.62 0.69,2.91 0.72,1.29 1.95,2.01 1.23,0.72 2.79,0.72 z" /></g></g></g></g></svg>